<svg width="22" height="22" viewBox="0 0 22 22" fill="none" xmlns="http://www.w3.org/2000/svg">
<path d="M11.0001 0C6.95656 0 3.66675 3.28982 3.66675 7.33335C3.66675 8.54722 3.97024 9.75077 4.54718 10.8183L10.5991 21.7637C10.6796 21.9096 10.8332 22 11.0001 22C11.167 22 11.3206 21.9096 11.4011 21.7637L17.4552 10.8147C18.03 9.75077 18.3334 8.54717 18.3334 7.3333C18.3334 3.28982 15.0436 0 11.0001 0ZM11.0001 11C8.97833 11 7.33344 9.35511 7.33344 7.33335C7.33344 5.31158 8.97833 3.6667 11.0001 3.6667C13.0219 3.6667 14.6667 5.31158 14.6667 7.33335C14.6667 9.35511 13.0219 11 11.0001 11Z" fill="#4CAF50"/>
</svg>
