<svg width="8" height="8" viewBox="0 0 8 8" fill="none" xmlns="http://www.w3.org/2000/svg">
<g id="back 1" clip-path="url(#clip0_319_487)">
<g id="Group">
<g id="Group_2">
<path id="Vector" d="M4.00169 4.77078L1.00878 1.778C0.926569 1.6956 0.81665 1.65026 0.699447 1.65026C0.582179 1.65026 0.472325 1.6956 0.389984 1.778L0.12787 2.04025C0.0453982 2.12252 -1.79986e-07 2.23251 -1.74863e-07 2.34971C-1.69739e-07 2.46691 0.0453982 2.57677 0.12787 2.65911L3.69119 6.22249C3.77379 6.30515 3.88416 6.35042 4.0015 6.3501C4.11935 6.35042 4.22959 6.30522 4.31226 6.22249L7.87213 2.66242C7.9546 2.58008 8 2.47023 8 2.35296C8 2.23576 7.9546 2.1259 7.87213 2.0435L7.61002 1.78132C7.43941 1.61072 7.16169 1.61072 6.99115 1.78132L4.00169 4.77078Z" fill="black"/>
</g>
</g>
</g>
<defs>
<clipPath id="clip0_319_487">
<rect width="8" height="8" fill="white" transform="translate(0 8) rotate(-90)"/>
</clipPath>
</defs>
</svg>
