<svg width="24" height="24" viewBox="0 0 24 24" fill="none" xmlns="http://www.w3.org/2000/svg">
<path d="M9.08633 10.3813H4.29496C3.51799 10.3813 3 9.86331 3 9.08633V4.29496C3 3.51799 3.51799 3 4.29496 3H9.08633C9.86331 3 10.3813 3.51799 10.3813 4.29496V9.08633C10.3813 9.86331 9.86331 10.3813 9.08633 10.3813Z" fill="#110B56"/>
<path d="M17.2447 10.3816C15.1727 10.3816 13.6188 8.69811 13.6188 6.75566C13.6188 4.68372 15.3022 3.12976 17.2447 3.12976C19.3166 3.12976 20.8706 4.81321 20.8706 6.75566C21.0001 8.69811 19.3166 10.3816 17.2447 10.3816Z" fill="#110B56"/>
<path d="M9.08633 20.6331H4.29496C3.51799 20.6331 3 20.1152 3 19.3382V14.6763C3 13.8993 3.51799 13.3813 4.29496 13.3813H9.08633C9.86331 13.3813 10.3813 13.8993 10.3813 14.6763V19.4677C10.3813 20.1152 9.86331 20.6331 9.08633 20.6331Z" fill="#110B56"/>
<path d="M19.4677 20.6331H14.6763C13.8993 20.6331 13.3813 20.1152 13.3813 19.3382V14.6763C13.3813 13.8993 13.8993 13.3813 14.6763 13.3813H19.4677C20.2447 13.3813 20.7626 13.8993 20.7626 14.6763V19.4677C20.7626 20.1152 20.1152 20.6331 19.4677 20.6331Z" fill="#110B56"/>
</svg>
